<svg xmlns="http://www.w3.org/2000/svg" xmlns:xlink="http://www.w3.org/1999/xlink" width="500" zoomAndPan="magnify" viewBox="0 0 375 374.999991" height="500" preserveAspectRatio="xMidYMid meet" version="1.0"><defs><clipPath id="2f29cfef6a"><path d="M 81.535156 66.398438 L 293.785156 66.398438 L 293.785156 308.648438 L 81.535156 308.648438 Z M 81.535156 66.398438 " clip-rule="nonzero"/></clipPath><clipPath id="411ca71b22"><path d="M 202 135 L 251.804688 135 L 251.804688 179 L 202 179 Z M 202 135 " clip-rule="nonzero"/></clipPath><clipPath id="5bcd942634"><path d="M 163 113.195312 L 213 113.195312 L 213 157 L 163 157 Z M 163 113.195312 " clip-rule="nonzero"/></clipPath><clipPath id="a4a601eda8"><path d="M 123.554688 135 L 174 135 L 174 179 L 123.554688 179 Z M 123.554688 135 " clip-rule="nonzero"/></clipPath><clipPath id="539cc0923b"><path d="M 123.554688 181 L 174 181 L 174 225 L 123.554688 225 Z M 123.554688 181 " clip-rule="nonzero"/></clipPath><clipPath id="267aa08315"><path d="M 163 203 L 213 203 L 213 246.695312 L 163 246.695312 Z M 163 203 " clip-rule="nonzero"/></clipPath><clipPath id="054170ca6a"><path d="M 202 181 L 251.804688 181 L 251.804688 225 L 202 225 Z M 202 181 " clip-rule="nonzero"/></clipPath></defs><g clip-path="url(#2f29cfef6a)"><path fill="#fafeff" d="M 240.46875 85.066406 C 214.566406 84.558594 194.386719 71.105469 187.488281 66.398438 C 180.59375 71.105469 160.410156 84.558594 134.511719 85.066406 C 106.089844 85.738281 88.261719 78.84375 81.53125 74.300781 L 81.53125 166.804688 C 81.53125 225.332031 126.941406 291.429688 187.488281 308.582031 C 217.761719 300.003906 244.335938 279.152344 263.171875 253.25 C 282.011719 227.351562 293.445312 196.066406 293.445312 166.804688 L 293.445312 74.300781 C 286.71875 78.84375 268.890625 85.738281 240.46875 85.066406 Z M 282.011719 166.804688 C 282.011719 192.871094 271.75 221.96875 253.921875 246.523438 C 236.09375 271.078125 212.550781 288.738281 187.488281 296.808594 C 162.261719 288.90625 138.882812 271.078125 121.054688 246.691406 C 103.230469 222.304688 92.96875 192.871094 92.96875 166.804688 L 92.96875 91.457031 C 105.246094 94.988281 118.027344 96.667969 130.8125 96.5 L 134.847656 96.5 C 152.507812 95.996094 170.503906 90.277344 187.488281 79.851562 C 204.476562 90.277344 222.472656 95.996094 240.132812 96.332031 L 244.167969 96.332031 C 256.949219 96.5 269.730469 94.820312 282.011719 91.289062 Z M 270.742188 105.75 L 270.742188 166.804688 C 270.742188 190.683594 261.324219 217.257812 244.839844 239.796875 C 229.199219 261.15625 209.015625 276.964844 187.488281 284.699219 C 165.960938 276.964844 145.78125 261.15625 130.136719 239.796875 C 113.65625 217.257812 104.238281 190.515625 104.238281 166.804688 L 104.238281 105.75 C 112.984375 107.265625 121.898438 107.9375 130.8125 107.9375 L 135.015625 107.9375 C 153.515625 107.265625 171.34375 102.21875 187.488281 93.136719 C 203.46875 102.21875 221.464844 107.265625 239.964844 107.9375 L 244.167969 107.9375 C 253.082031 107.9375 261.996094 107.097656 270.742188 105.75 Z M 270.742188 105.75 " fill-opacity="1" fill-rule="nonzero"/></g><g clip-path="url(#411ca71b22)"><path fill="#000000" d="M 239.027344 178.734375 L 215.050781 178.734375 C 214.785156 178.734375 214.542969 178.59375 214.414062 178.367188 L 202.425781 157.65625 C 202.292969 157.429688 202.292969 157.148438 202.425781 156.921875 L 214.414062 136.210938 C 214.542969 135.984375 214.785156 135.84375 215.050781 135.84375 L 239.027344 135.84375 C 239.289062 135.84375 239.535156 135.984375 239.664062 136.210938 L 251.65625 156.921875 C 251.785156 157.148438 251.785156 157.429688 251.65625 157.65625 L 239.664062 178.367188 C 239.535156 178.59375 239.289062 178.734375 239.027344 178.734375 Z M 215.472656 177.269531 L 238.605469 177.269531 L 250.167969 157.289062 L 238.605469 137.308594 L 215.472656 137.308594 L 203.910156 157.289062 Z M 215.472656 177.269531 " fill-opacity="1" fill-rule="nonzero"/></g><path fill="#000000" d="M 199.703125 201.382812 L 175.722656 201.382812 C 175.460938 201.382812 175.21875 201.242188 175.085938 201.015625 L 163.097656 180.300781 C 162.964844 180.074219 162.964844 179.796875 163.097656 179.570312 L 175.085938 158.855469 C 175.21875 158.628906 175.460938 158.488281 175.722656 158.488281 L 199.703125 158.488281 C 199.964844 158.488281 200.207031 158.628906 200.339844 158.855469 L 212.328125 179.570312 C 212.460938 179.796875 212.460938 180.074219 212.328125 180.300781 L 200.339844 201.015625 C 200.207031 201.242188 199.964844 201.382812 199.703125 201.382812 Z M 176.148438 199.914062 L 199.277344 199.914062 L 210.84375 179.9375 L 199.277344 159.957031 L 176.148438 159.957031 L 164.582031 179.9375 Z M 176.148438 199.914062 " fill-opacity="1" fill-rule="nonzero"/><g clip-path="url(#5bcd942634)"><path fill="#000000" d="M 199.703125 156.089844 L 175.722656 156.089844 C 175.460938 156.089844 175.21875 155.949219 175.085938 155.722656 L 163.097656 135.007812 C 162.964844 134.78125 162.964844 134.503906 163.097656 134.277344 L 175.085938 113.5625 C 175.21875 113.335938 175.460938 113.195312 175.722656 113.195312 L 199.703125 113.195312 C 199.964844 113.195312 200.207031 113.335938 200.339844 113.5625 L 212.328125 134.277344 C 212.460938 134.503906 212.460938 134.78125 212.328125 135.007812 L 200.339844 155.722656 C 200.207031 155.949219 199.964844 156.089844 199.703125 156.089844 Z M 176.148438 154.621094 L 199.277344 154.621094 L 210.84375 134.640625 L 199.277344 114.664062 L 176.148438 114.664062 L 164.582031 134.640625 Z M 176.148438 154.621094 " fill-opacity="1" fill-rule="nonzero"/></g><g clip-path="url(#a4a601eda8)"><path fill="#000000" d="M 160.375 178.734375 L 136.398438 178.734375 C 136.136719 178.734375 135.890625 178.59375 135.761719 178.367188 L 123.769531 157.65625 C 123.640625 157.429688 123.640625 157.148438 123.769531 156.921875 L 135.761719 136.210938 C 135.890625 135.984375 136.136719 135.84375 136.398438 135.84375 L 160.375 135.84375 C 160.636719 135.84375 160.882812 135.984375 161.011719 136.210938 L 173 156.921875 C 173.132812 157.148438 173.132812 157.429688 173 157.65625 L 161.011719 178.367188 C 160.882812 178.59375 160.636719 178.734375 160.375 178.734375 Z M 136.820312 177.269531 L 159.953125 177.269531 L 171.515625 157.289062 L 159.953125 137.308594 L 136.820312 137.308594 L 125.257812 157.289062 Z M 136.820312 177.269531 " fill-opacity="1" fill-rule="nonzero"/></g><g clip-path="url(#539cc0923b)"><path fill="#000000" d="M 160.375 224.027344 L 136.398438 224.027344 C 136.136719 224.027344 135.890625 223.886719 135.761719 223.660156 L 123.769531 202.949219 C 123.640625 202.722656 123.640625 202.441406 123.769531 202.214844 L 135.761719 181.503906 C 135.890625 181.277344 136.136719 181.136719 136.398438 181.136719 L 160.375 181.136719 C 160.636719 181.136719 160.882812 181.277344 161.011719 181.503906 L 173 202.214844 C 173.132812 202.441406 173.132812 202.722656 173 202.949219 L 161.011719 223.660156 C 160.882812 223.890625 160.636719 224.027344 160.375 224.027344 Z M 136.820312 222.5625 L 159.953125 222.5625 L 171.515625 202.582031 L 159.953125 182.601562 L 136.820312 182.601562 L 125.257812 202.582031 Z M 136.820312 222.5625 " fill-opacity="1" fill-rule="nonzero"/></g><g clip-path="url(#267aa08315)"><path fill="#000000" d="M 199.703125 246.675781 L 175.722656 246.675781 C 175.460938 246.675781 175.21875 246.535156 175.085938 246.308594 L 163.097656 225.59375 C 162.964844 225.367188 162.964844 225.089844 163.097656 224.863281 L 175.085938 204.148438 C 175.21875 203.921875 175.460938 203.78125 175.722656 203.78125 L 199.703125 203.78125 C 199.964844 203.78125 200.207031 203.921875 200.339844 204.148438 L 212.328125 224.863281 C 212.460938 225.089844 212.460938 225.367188 212.328125 225.59375 L 200.339844 246.308594 C 200.207031 246.535156 199.964844 246.675781 199.703125 246.675781 Z M 176.148438 245.207031 L 199.277344 245.207031 L 210.84375 225.226562 L 199.277344 205.25 L 176.148438 205.25 L 164.582031 225.226562 Z M 176.148438 245.207031 " fill-opacity="1" fill-rule="nonzero"/></g><g clip-path="url(#054170ca6a)"><path fill="#000000" d="M 239.027344 224.027344 L 215.050781 224.027344 C 214.785156 224.027344 214.542969 223.886719 214.414062 223.660156 L 202.425781 202.949219 C 202.292969 202.722656 202.292969 202.441406 202.425781 202.214844 L 214.414062 181.503906 C 214.542969 181.277344 214.785156 181.136719 215.050781 181.136719 L 239.027344 181.136719 C 239.289062 181.136719 239.535156 181.277344 239.664062 181.503906 L 251.65625 202.214844 C 251.785156 202.441406 251.785156 202.722656 251.65625 202.949219 L 239.664062 223.660156 C 239.535156 223.890625 239.289062 224.027344 239.027344 224.027344 Z M 215.472656 222.5625 L 238.605469 222.5625 L 250.167969 202.582031 L 238.605469 182.601562 L 215.472656 182.601562 L 203.910156 202.582031 Z M 215.472656 222.5625 " fill-opacity="1" fill-rule="nonzero"/></g></svg>